<mxfile host="app.diagrams.net" agent="Mozilla/5.0 (Windows NT 10.0; Win64; x64) AppleWebKit/537.36 (KHTML, like Gecko) Chrome/138.0.0.0 Safari/537.36" version="28.0.7">
  <diagram name="Page-1" id="Wu6n5zQK4aGDkGloXLdh">
    <mxGraphModel dx="1895" dy="1022" grid="1" gridSize="10" guides="1" tooltips="1" connect="1" arrows="1" fold="1" page="1" pageScale="1" pageWidth="850" pageHeight="1100" math="0" shadow="0">
      <root>
        <mxCell id="0" />
        <mxCell id="1" parent="0" />
        <mxCell id="XK4cvTF7ZOgwGoqEIPpi-14" style="edgeStyle=orthogonalEdgeStyle;rounded=0;orthogonalLoop=1;jettySize=auto;html=1;exitX=0.5;exitY=1;exitDx=0;exitDy=0;entryX=0.5;entryY=0;entryDx=0;entryDy=0;" edge="1" parent="1" source="XK4cvTF7ZOgwGoqEIPpi-1" target="XK4cvTF7ZOgwGoqEIPpi-3">
          <mxGeometry relative="1" as="geometry" />
        </mxCell>
        <mxCell id="XK4cvTF7ZOgwGoqEIPpi-1" value="test" style="ellipse;whiteSpace=wrap;html=1;" vertex="1" parent="1">
          <mxGeometry x="310" y="1020" width="140" height="80" as="geometry" />
        </mxCell>
        <mxCell id="XK4cvTF7ZOgwGoqEIPpi-16" style="edgeStyle=orthogonalEdgeStyle;rounded=0;orthogonalLoop=1;jettySize=auto;html=1;exitX=0.5;exitY=1;exitDx=0;exitDy=0;entryX=0.5;entryY=0;entryDx=0;entryDy=0;" edge="1" parent="1" source="XK4cvTF7ZOgwGoqEIPpi-2" target="XK4cvTF7ZOgwGoqEIPpi-9">
          <mxGeometry relative="1" as="geometry" />
        </mxCell>
        <mxCell id="XK4cvTF7ZOgwGoqEIPpi-2" value="deploy" style="ellipse;whiteSpace=wrap;html=1;" vertex="1" parent="1">
          <mxGeometry x="310" y="1230" width="140" height="80" as="geometry" />
        </mxCell>
        <mxCell id="XK4cvTF7ZOgwGoqEIPpi-15" style="edgeStyle=orthogonalEdgeStyle;rounded=0;orthogonalLoop=1;jettySize=auto;html=1;exitX=0.5;exitY=1;exitDx=0;exitDy=0;entryX=0.5;entryY=0;entryDx=0;entryDy=0;" edge="1" parent="1" source="XK4cvTF7ZOgwGoqEIPpi-3" target="XK4cvTF7ZOgwGoqEIPpi-2">
          <mxGeometry relative="1" as="geometry" />
        </mxCell>
        <mxCell id="XK4cvTF7ZOgwGoqEIPpi-3" value="release" style="ellipse;whiteSpace=wrap;html=1;" vertex="1" parent="1">
          <mxGeometry x="310" y="1120" width="140" height="80" as="geometry" />
        </mxCell>
        <mxCell id="XK4cvTF7ZOgwGoqEIPpi-13" style="edgeStyle=orthogonalEdgeStyle;rounded=0;orthogonalLoop=1;jettySize=auto;html=1;exitX=0.5;exitY=1;exitDx=0;exitDy=0;entryX=0.5;entryY=0;entryDx=0;entryDy=0;" edge="1" parent="1" source="XK4cvTF7ZOgwGoqEIPpi-4" target="XK4cvTF7ZOgwGoqEIPpi-1">
          <mxGeometry relative="1" as="geometry" />
        </mxCell>
        <mxCell id="XK4cvTF7ZOgwGoqEIPpi-4" value="develop" style="ellipse;whiteSpace=wrap;html=1;" vertex="1" parent="1">
          <mxGeometry x="310" y="920" width="140" height="80" as="geometry" />
        </mxCell>
        <mxCell id="XK4cvTF7ZOgwGoqEIPpi-12" style="edgeStyle=orthogonalEdgeStyle;rounded=0;orthogonalLoop=1;jettySize=auto;html=1;exitX=0.5;exitY=1;exitDx=0;exitDy=0;entryX=0.5;entryY=0;entryDx=0;entryDy=0;" edge="1" parent="1" source="XK4cvTF7ZOgwGoqEIPpi-5" target="XK4cvTF7ZOgwGoqEIPpi-4">
          <mxGeometry relative="1" as="geometry" />
        </mxCell>
        <mxCell id="XK4cvTF7ZOgwGoqEIPpi-5" value="build" style="ellipse;whiteSpace=wrap;html=1;" vertex="1" parent="1">
          <mxGeometry x="310" y="800" width="140" height="80" as="geometry" />
        </mxCell>
        <mxCell id="XK4cvTF7ZOgwGoqEIPpi-11" style="edgeStyle=orthogonalEdgeStyle;rounded=0;orthogonalLoop=1;jettySize=auto;html=1;exitX=0.5;exitY=1;exitDx=0;exitDy=0;entryX=0.5;entryY=0;entryDx=0;entryDy=0;" edge="1" parent="1" source="XK4cvTF7ZOgwGoqEIPpi-6" target="XK4cvTF7ZOgwGoqEIPpi-5">
          <mxGeometry relative="1" as="geometry" />
        </mxCell>
        <mxCell id="XK4cvTF7ZOgwGoqEIPpi-6" value="plan" style="ellipse;whiteSpace=wrap;html=1;" vertex="1" parent="1">
          <mxGeometry x="310" y="700" width="140" height="80" as="geometry" />
        </mxCell>
        <mxCell id="XK4cvTF7ZOgwGoqEIPpi-8" value="monitor" style="ellipse;whiteSpace=wrap;html=1;" vertex="1" parent="1">
          <mxGeometry x="310" y="1450" width="140" height="80" as="geometry" />
        </mxCell>
        <mxCell id="XK4cvTF7ZOgwGoqEIPpi-17" style="edgeStyle=orthogonalEdgeStyle;rounded=0;orthogonalLoop=1;jettySize=auto;html=1;exitX=0.5;exitY=1;exitDx=0;exitDy=0;entryX=0.5;entryY=0;entryDx=0;entryDy=0;" edge="1" parent="1" source="XK4cvTF7ZOgwGoqEIPpi-9" target="XK4cvTF7ZOgwGoqEIPpi-8">
          <mxGeometry relative="1" as="geometry" />
        </mxCell>
        <mxCell id="XK4cvTF7ZOgwGoqEIPpi-9" value="operation" style="ellipse;whiteSpace=wrap;html=1;" vertex="1" parent="1">
          <mxGeometry x="310" y="1340" width="140" height="80" as="geometry" />
        </mxCell>
      </root>
    </mxGraphModel>
  </diagram>
</mxfile>
